<?xml version="1.0" encoding="utf-8"?>
<!-- Generator: Adobe Illustrator 19.2.1, SVG Export Plug-In . SVG Version: 6.00 Build 0)  -->
<svg version="1.1" id="Layer_1" xmlns="http://www.w3.org/2000/svg" xmlns:xlink="http://www.w3.org/1999/xlink" x="0px" y="0px"
	 viewBox="0 0 31.3 21.7" style="enable-background:new 0 0 31.3 21.7;" xml:space="preserve">
<style type="text/css">
	.st0{opacity:0.9;fill:#FFFFFF;}
</style>
<path class="st0" d="M24.6,3.5l-5.2,3V4.1c0-0.4-0.3-0.7-0.6-0.7c-0.2,0-0.3,0-0.4,0.1l-6.2,3.6l0,0l0,0l-6.2,3.6
	c-0.3,0.2-0.4,0.6-0.2,0.9c0,0.1,0.1,0.2,0.2,0.2l6.2,3.6l0,0l6.2,3.6c0.3,0.2,0.7,0,0.9-0.3c0-0.1,0.1-0.2,0.1-0.3l0,0v-2.5
	l5.3,3.1c0.3,0.2,0.7,0,0.9-0.3c0-0.1,0.1-0.2,0.1-0.3l0,0v-7.2V4.1c0-0.4-0.3-0.7-0.7-0.7C24.8,3.4,24.6,3.4,24.6,3.5L24.6,3.5z"/>
</svg>
