<?xml version="1.0" encoding="UTF-8" standalone="no"?>
<!-- Generator: Adobe Illustrator 17.0.0, SVG Export Plug-In . SVG Version: 6.00 Build 0)  -->

<svg
   xmlns:dc="http://purl.org/dc/elements/1.1/"
   xmlns:cc="http://creativecommons.org/ns#"
   xmlns:rdf="http://www.w3.org/1999/02/22-rdf-syntax-ns#"
   xmlns:svg="http://www.w3.org/2000/svg"
   xmlns="http://www.w3.org/2000/svg"
   xmlns:sodipodi="http://sodipodi.sourceforge.net/DTD/sodipodi-0.dtd"
   xmlns:inkscape="http://www.inkscape.org/namespaces/inkscape"
   version="1.1"
   x="0px"
   y="0px"
   width="100px"
   height="100px"
   viewBox="0 0 100 100"
   enable-background="new 0 0 100 100"
   xml:space="preserve"
   id="svg2"
   inkscape:version="0.91 r13725"
   sodipodi:docname="bit.svg"><metadata
     id="metadata12"><rdf:RDF><cc:Work
         rdf:about=""><dc:format>image/svg+xml</dc:format><dc:type
           rdf:resource="http://purl.org/dc/dcmitype/StillImage" /></cc:Work></rdf:RDF></metadata><defs
     id="defs10" /><sodipodi:namedview
     pagecolor="#ffffff"
     bordercolor="#666666"
     borderopacity="1"
     objecttolerance="10"
     gridtolerance="10"
     guidetolerance="10"
     inkscape:pageopacity="0"
     inkscape:pageshadow="2"
     inkscape:window-width="1535"
     inkscape:window-height="876"
     id="namedview8"
     showgrid="false"
     inkscape:zoom="9.44"
     inkscape:cx="63.670129"
     inkscape:cy="59.2986"
     inkscape:window-x="65"
     inkscape:window-y="24"
     inkscape:window-maximized="1"
     inkscape:current-layer="svg2"
     inkscape:object-nodes="false" /><g
     id="Layer_1"
     transform="translate(2.0127116,-3.6016947)"><path
       d="m 94.649,86.101 c 0,1.722 -1.107,3.075 -3.321,3.075 l -82.411,0 c -2.214,0 -3.566,-1.23 -3.566,-2.952 0,-0.615 0.245,-1.23 0.614,-1.968 L 47.048,12.547 c 0.614,-1.107 1.722,-1.722 2.829,-1.722 1.106,0 2.214,0.615 2.829,1.722 L 94.28,84.256 c 0.369,0.615 0.369,1.353 0.369,1.845 z M 31.55,53.137 c 4.551,-3.075 10.332,-5.166 17.22,-5.166 11.809,0 16.975,7.749 18.327,11.562 l -0.738,0.369 c -1.106,-1.353 -3.689,-2.706 -7.257,-2.706 -5.781,0 -7.995,3.813 -7.995,7.626 0,6.273 6.273,12.177 20.91,12.177 4.306,0 7.38,-0.861 9.472,-1.722 L 50,20.91 31.55,53.137 Z"
       id="path5"
       inkscape:connector-curvature="0" /></g><g
     id="_x3C_Layer_x3E_" /><path
     style="fill:#550000"
     d="M 9.5833179,85.341355 C 8.2930844,84.933307 7.548879,84.067288 7.442855,82.850536 7.4030217,82.393401 7.4495043,82.101801 7.646973,81.570044 7.7876064,81.191336 12.601612,72.682332 18.344763,62.661145 24.087914,52.639959 33.388407,36.408497 39.012524,26.59123 44.636642,16.773963 49.384224,8.5669857 49.562704,8.3535025 49.741184,8.1400191 50.181589,7.8182501 50.54138,7.63846 c 1.213754,-0.6065194 2.592354,-0.3749778 3.550866,0.596382 0.264433,0.267978 4.370501,7.253479 11.758195,20.003784 6.243527,10.775606 15.668927,27.038159 20.945331,36.139007 5.918657,10.208617 9.64033,16.733119 9.715813,17.032891 0.199641,0.792844 0.07543,1.931993 -0.282341,2.589331 -0.352992,0.648563 -0.767269,0.997974 -1.524278,1.285615 -0.527056,0.200265 -1.320611,0.203933 -42.617488,0.196978 C 18.466059,85.476787 9.9218687,85.448424 9.5833179,85.341355 Z M 78.227386,73.156534 c 0.582627,-0.09539 1.464512,-0.268335 1.959745,-0.384321 0.897617,-0.210225 3.015318,-0.881386 3.246994,-1.029067 0.0814,-0.05189 -2.113027,-3.937212 -6.595361,-11.67734 C 73.144218,53.686039 66.058071,41.447356 61.09177,32.868732 56.125468,24.290108 52.038297,17.272234 52.009165,17.273455 c -0.02913,0.0012 -0.532574,0.846897 -1.11876,1.879278 -0.586188,1.032381 -4.729229,8.276918 -9.20676,16.09897 -4.477529,7.822053 -8.121332,14.241222 -8.09734,14.264821 0.02399,0.0236 0.490565,-0.238089 1.036826,-0.581529 6.025517,-3.788301 14.159692,-5.37767 20.775865,-4.05948 3.15718,0.629029 5.957133,1.907687 8.315678,3.797531 2.055473,1.647001 3.92635,4.036837 4.93703,6.306503 l 0.401631,0.901935 -0.336506,0.174116 -0.336506,0.174116 -0.426045,-0.417838 c -2.387134,-2.341149 -7.949062,-2.975843 -11.226355,-1.281084 -1.107374,0.572646 -2.247079,1.756315 -2.792747,2.900482 -0.627568,1.315891 -0.802461,2.126348 -0.808549,3.746819 -0.0064,1.695406 0.182679,2.542587 0.901533,4.040038 2.221338,4.627287 7.812642,7.36088 16.625073,8.128013 1.260242,0.109706 6.555669,-0.02286 7.574153,-0.189612 z"
     id="path3336"
     inkscape:connector-curvature="0" /><path
     style="fill:#00B6AA"
     d="M 14.191369,85.389074 C 9.5925104,85.332064 9.4667361,85.32494 9.0413189,85.097353 8.3754471,84.74113 7.9862046,84.370708 7.756576,83.87473 7.4661975,83.247538 7.3875374,82.607309 7.5309046,82.037945 7.7236982,81.272293 9.6675819,77.831591 26.826994,47.883603 47.180459,12.361095 49.461707,8.4161633 49.816141,8.1287745 51.091475,7.0946883 52.812629,7.0751752 53.849326,8.0830494 54.484464,8.7005285 55.934143,11.160047 72.001158,38.879366 92.5591,74.346573 94.924222,78.449339 95.998961,80.50824 l 0.634612,1.215738 -0.05761,0.761732 c -0.101576,1.343074 -0.662927,2.233978 -1.704694,2.70547 l -0.542188,0.245389 -37.711865,0.0055 c -20.741525,0.003 -39.833157,-0.02083 -42.425847,-0.05297 l 0,5e-6 z m 62.318154,-12.08322 c 1.875693,-0.119656 3.646836,-0.454561 5.42549,-1.025907 1.66951,-0.536287 1.587836,-0.466381 1.272337,-1.088989 C 82.612402,70.016884 69.231719,46.841625 57.059283,25.902671 54.552915,21.59123 52.403224,17.88532 52.282191,17.667316 c -0.121033,-0.218005 -0.24565,-0.396765 -0.276926,-0.397246 -0.105834,-0.0016 -18.4269,32.149311 -18.337352,32.179515 0.04886,0.01648 0.700138,-0.334066 1.44728,-0.778993 6.418373,-3.822176 14.813871,-5.193775 21.449057,-3.504199 4.224307,1.075673 7.680402,3.371927 10.273874,6.826037 0.906527,1.207356 2.194616,3.595285 2.088511,3.871792 -0.03585,0.09342 -0.186062,0.200187 -0.333811,0.23727 -0.221629,0.05562 -0.372649,-0.02764 -0.863099,-0.475887 -0.729729,-0.666931 -1.969977,-1.280504 -3.379458,-1.671878 -0.990304,-0.27498 -1.193908,-0.294232 -3.125,-0.295482 -1.844192,-0.0012 -2.156033,0.02482 -2.908361,0.242642 -1.990373,0.576265 -3.54186,1.823376 -4.374901,3.516614 -1.186935,2.412566 -1.136596,5.436918 0.132239,7.944916 0.513261,1.014522 1.118723,1.826514 2.056454,2.757938 3.8582,3.83225 11.421941,5.756884 20.378825,5.185499 z"
     id="path3338"
     inkscape:connector-curvature="0" /><path
     style="fill:#ffffff"
     d="m 14.156733,85.396232 c -4.5988588,-0.057 -4.7246328,-0.0641 -5.1500498,-0.29173 -0.665872,-0.35622 -1.055115,-0.72664 -1.284743,-1.22262 -0.290379,-0.62719 -0.369039,-1.26742 -0.225672,-1.83678 C 7.6890622,81.279447 9.6329462,77.838745 26.792357,47.890757 47.145823,12.368248 49.427073,8.4233149 49.781503,8.1359271 c 1.27534,-1.034087 2.99649,-1.0536 4.03319,-0.04573 0.63513,0.6174788 2.08481,3.0769979 18.15183,30.7963179 C 92.52447,74.353722 94.88959,78.456488 95.96433,80.515389 l 0.63461,1.215738 -0.0576,0.76173 c -0.10157,1.34308 -0.66292,2.23398 -1.70469,2.70547 l -0.54219,0.24539 -37.711867,0.005 c -20.741529,0.003 -39.83316,-0.0208 -42.42585,-0.053 l 0,10e-6 z M 87.833726,79.143027 51.864701,17.277222 16.689284,79.250391 Z"
     id="path3338-3"
     inkscape:connector-curvature="0"
     sodipodi:nodetypes="ccssssssscssccccccccc" /><path
     style="fill:#00ffff"
     d="M 70.534535,73.24213 C 63.97897,72.651323 59.309028,70.993666 56.406496,68.227196 55.338351,67.209122 54.629369,66.275106 54.106978,65.1978 52.30669,61.485138 53.202145,57.030014 56.15725,54.997156 c 1.333518,-0.917344 2.768703,-1.286061 5.002285,-1.285148 2.929361,0.0012 5.272611,0.773985 6.789845,2.239242 l 0.433912,0.419047 0.387854,-0.184955 c 0.474491,-0.226269 0.478451,-0.205253 -0.356703,-1.892841 -1.265393,-2.556971 -3.384261,-4.931485 -5.922765,-6.637358 -3.684745,-2.476148 -8.245792,-3.583518 -13.468206,-3.269928 -5.334968,0.320349 -9.970332,1.726905 -14.277201,4.332276 -0.58675,0.354945 -0.860563,0.473704 -0.815023,0.353494 0.209467,-0.55292 18.003043,-31.481826 18.070697,-31.4106 0.07622,0.08024 28.477122,48.908546 30.458587,52.36598 0.503568,0.878671 0.894507,1.618656 0.868751,1.644412 -0.09263,0.09263 -1.850705,0.670222 -2.700293,0.887142 -2.134602,0.545011 -3.204844,0.659435 -6.49276,0.694164 -1.71875,0.01815 -3.339512,0.01368 -3.601695,-0.01 l 0,5e-6 z"
     id="path3356"
     inkscape:connector-curvature="0" /><path
     style="fill:#00B6DD"
     d="m 16.826907,79.145742 c 1e-6,-0.02245 3.770095,-6.682211 8.377987,-14.799459 l 8.377986,-14.758631 1.500191,-0.84017 c 2.649487,-1.483823 4.455505,-2.263108 6.904402,-2.979207 2.975477,-0.87008 5.403378,-1.213136 8.578842,-1.21217 4.851484,0.0015 8.374522,0.965249 11.71712,3.20537 2.323516,1.557159 4.058377,3.375882 5.475439,5.740118 1.450572,2.420146 1.39381,3.140156 -0.155342,1.970415 -0.893357,-0.674562 -1.809551,-1.126595 -3.083919,-1.521553 -0.885925,-0.274569 -1.020953,-0.286406 -3.307111,-0.289902 -2.346903,-0.0036 -2.396478,9.32e-4 -3.230933,0.294654 -2.973849,1.046771 -4.720462,3.454693 -4.893428,6.746193 -0.140442,2.672615 0.733918,5.002629 2.644996,7.04844 2.687454,2.876922 6.758035,4.600975 12.788687,5.416516 1.819436,0.246048 7.9539,0.279514 9.480932,0.05172 1.802815,-0.268931 4.690021,-1.016623 5.213204,-1.350051 0.227441,-0.144949 0.256073,-0.112476 0.965602,1.095175 2.068087,3.519977 3.533624,6.079965 3.49939,6.112705 -0.05303,0.05071 -70.854046,0.120494 -70.854045,0.06983 z"
     id="path3358"
     inkscape:connector-curvature="0" /><path
     style="fill:#00B6DD"
     d="m 16.93284,79.09249 c 0,-0.04957 3.078513,-5.495052 10.858051,-19.206457 l 5.826272,-10.268779 1.271186,-0.70316 c 3.509327,-1.941193 5.83585,-2.862461 9.138064,-3.618534 2.199815,-0.50367 3.478548,-0.629892 6.43397,-0.63509 3.049452,-0.0054 4.248311,0.122843 6.355932,0.679708 4.917499,1.299278 9.166611,4.713327 11.459951,9.207764 0.755391,1.480401 0.577906,1.743698 -0.607697,0.901511 -0.874316,-0.621067 -1.724754,-1.053745 -2.854373,-1.452221 -0.872321,-0.307713 -0.973371,-0.319157 -3.23769,-0.366637 -2.680915,-0.05622 -3.139472,0.01538 -4.548327,0.710138 -1.87217,0.923237 -3.153572,2.49189 -3.724823,4.559819 -0.297975,1.078673 -0.273491,3.698227 0.04485,4.797827 0.285333,0.985606 0.835901,2.116371 1.456488,2.991362 0.615621,0.867988 2.276695,2.435683 3.294402,3.109204 2.367591,1.566877 5.645953,2.680724 9.78581,3.324796 1.267606,0.197213 1.910259,0.22349 5.615736,0.229627 3.63872,0.006 4.308637,-0.01812 5.137712,-0.185224 1.555649,-0.313537 3.451369,-0.81115 4.128735,-1.083764 0.348135,-0.140112 0.667199,-0.2202 0.709033,-0.177974 0.09699,0.09789 3.609306,6.124517 3.889762,6.674256 l 0.210178,0.411982 -16.439193,0.07044 c -17.815115,0.07634 -54.204024,0.09608 -54.204024,0.0294 z"
     id="path3360"
     inkscape:connector-curvature="0" /><path
     style="fill:#00B6DD"
     d="m 17.094863,79.032727 c -0.07356,-0.119021 -0.232049,0.165643 7.552162,-13.564378 3.352742,-5.913665 6.744013,-11.896187 7.536156,-13.294492 l 1.44026,-2.542373 1.585843,-0.872554 c 2.968209,-1.633152 5.74405,-2.721004 8.683302,-3.402987 2.376045,-0.551303 2.899035,-0.597544 6.726695,-0.594745 3.453819,0.0025 3.584568,0.01028 4.888753,0.289778 3.029383,0.649231 5.778762,1.913441 7.98201,3.67026 0.849305,0.677216 2.419657,2.310463 3.115956,3.240757 1.499522,2.003439 2.457517,3.972457 1.93274,3.972457 -0.05262,0 -0.461169,-0.238602 -0.907895,-0.530229 -1.053034,-0.687428 -1.87009,-1.096005 -2.891508,-1.445928 -0.767766,-0.263026 -0.983421,-0.286244 -3.080309,-0.331646 -2.56243,-0.05548 -3.167569,0.02264 -4.331553,0.559185 -1.943861,0.896034 -3.267243,2.360355 -3.923838,4.341724 -0.257762,0.77783 -0.282041,0.997515 -0.287088,2.597572 -0.0043,1.350478 0.03688,1.904435 0.180924,2.436441 0.243958,0.900999 0.921182,2.310799 1.499033,3.120584 0.621467,0.870908 2.281037,2.440312 3.304141,3.124624 2.221027,1.485555 5.261024,2.546027 9.308888,3.247315 1.666931,0.288794 1.768376,0.293703 6.144068,0.297284 l 4.449153,0.0036 1.483051,-0.343466 c 0.815678,-0.188906 2.020859,-0.511358 2.67818,-0.716558 0.657321,-0.205201 1.236199,-0.347711 1.286394,-0.316687 0.164134,0.10144 4.033307,6.741352 4.033307,6.921584 0,0.189218 -70.272018,0.321832 -70.388825,0.132835 l 0,-1e-6 z"
     id="path3362"
     inkscape:connector-curvature="0" /><path
     style="fill:#ffffff"
     d="M 69.687078,73.126259 C 64.869959,72.59052 60.916265,71.373976 58.193434,69.589685 57.16405,68.915122 55.269883,67.045377 54.66216,66.103942 c -0.514833,-0.797539 -1.034438,-2.079231 -1.244367,-3.069443 -0.221389,-1.044258 -0.192617,-2.87251 0.06104,-3.878654 0.534007,-2.118181 1.767316,-3.724647 3.507137,-4.568279 1.071255,-0.519448 1.571337,-0.645621 3.085537,-0.778498 2.999094,-0.263181 5.948295,0.498496 7.58507,1.958963 0.363766,0.324582 0.709627,0.590148 0.76858,0.590148 0.215616,0 0.732261,-0.327191 0.732261,-0.46374 0,-0.07728 -0.263963,-0.678347 -0.586586,-1.335708 -2.504989,-5.104072 -7.192552,-8.607803 -13.103395,-9.794168 -1.854473,-0.372212 -3.765109,-0.521045 -5.695612,-0.443673 -5.519499,0.221214 -10.068595,1.503009 -14.601313,4.114197 -0.602226,0.346928 -1.11186,0.613875 -1.132519,0.593215 -0.09636,-0.09635 17.805863,-31.22504 17.958408,-31.226389 0.05479,-4.84e-4 3.156139,5.309483 15.682508,26.850758 14.544681,25.012114 15.567492,26.784016 15.567492,26.968878 0,0.123996 -2.092072,0.774218 -3.525194,1.095641 -0.654403,0.146771 -1.737789,0.315353 -2.407526,0.374627 -1.136548,0.100588 -6.801801,0.126173 -7.626602,0.03444 z"
     id="path3364"
     inkscape:connector-curvature="0" /></svg>
