<?xml version="1.0" encoding="UTF-8" standalone="no"?>
<svg
   xmlns:dc="http://purl.org/dc/elements/1.1/"
   xmlns:cc="http://creativecommons.org/ns#"
   xmlns:rdf="http://www.w3.org/1999/02/22-rdf-syntax-ns#"
   xmlns:svg="http://www.w3.org/2000/svg"
   xmlns="http://www.w3.org/2000/svg"
   xmlns:sodipodi="http://sodipodi.sourceforge.net/DTD/sodipodi-0.dtd"
   xmlns:inkscape="http://www.inkscape.org/namespaces/inkscape"
   version="1.1"
   x="0px"
   y="0px"
   viewBox="0 0 57.400002 77.199997"
   xml:space="preserve"
   id="svg2"
   inkscape:version="0.91 r13725"
   sodipodi:docname="holowhite.svg"
   width="57.400002"
   height="77.199997"><metadata
     id="metadata46"><rdf:RDF><cc:Work
         rdf:about=""><dc:format>image/svg+xml</dc:format><dc:type
           rdf:resource="http://purl.org/dc/dcmitype/StillImage" /><dc:title></dc:title></cc:Work></rdf:RDF></metadata><defs
     id="defs44" /><sodipodi:namedview
     pagecolor="#ffffff"
     bordercolor="#666666"
     borderopacity="1"
     objecttolerance="10"
     gridtolerance="10"
     guidetolerance="10"
     inkscape:pageopacity="0"
     inkscape:pageshadow="2"
     inkscape:window-width="1535"
     inkscape:window-height="876"
     id="namedview42"
     showgrid="false"
     showguides="false"
     inkscape:zoom="7.521978"
     inkscape:cx="33.259896"
     inkscape:cy="57.006201"
     inkscape:window-x="65"
     inkscape:window-y="24"
     inkscape:window-maximized="1"
     inkscape:current-layer="svg2"
     fit-margin-top="0"
     fit-margin-left="0"
     fit-margin-right="0"
     fit-margin-bottom="0" /><g
     id="g4"
     transform="translate(-17.4,-6.8)"><path
       d="m 73.2,80.8 -14.2,0 c -0.2,-5.9 -6.3,-5.9 -8.6,-5.9 l -8.6,0 c -2.3,0 -8.5,0 -8.6,5.9 l -14.2,0 c -0.9,0 -1.6,0.7 -1.6,1.6 0,0.9 0.7,1.6 1.6,1.6 l 54.2,0 c 0.9,0 1.6,-0.7 1.6,-1.6 0,-0.9 -0.7,-1.6 -1.6,-1.6 z M 41.8,78 l 8.6,0 c 4.9,0 5.5,1.2 5.5,2.8 l -19.6,0 C 36.3,79.2 37,78 41.8,78 Z"
       id="path6"
       style="fill:#ffffff"
       inkscape:connector-curvature="0" /><path
       d="m 67.8,16.4 -21.7,-9.6 -21.7,9.6 0,22.3 21.7,11 21.7,-11 0,-22.3 z M 62.6,17.5 46.2,26 c 0,0 0,0 0,0 0,0 0,0 0,0 l -16.5,-8.5 16.5,-7.3 16.4,7.3 z m -35,2.5 17,8.8 0,16.6 -17,-8.6 0,-16.8 z m 20.1,25.4 0,-16.6 17,-8.8 0,16.8 -17,8.6 z"
       id="path8"
       style="fill:#ffffff"
       inkscape:connector-curvature="0" /><path
       d="m 42.2,30.4 c -0.3,-0.8 -1.3,-1.2 -2,-0.8 l -9.5,4 c -0.8,0.3 -1.2,1.3 -0.8,2 0.3,0.6 0.8,1 1.4,1 0.2,0 0.4,0 0.6,-0.1 l 9.5,-4 c 0.8,-0.4 1.2,-1.3 0.8,-2.1 z"
       id="path10"
       style="fill:#ffffff"
       inkscape:connector-curvature="0" /><path
       d="m 61.5,33.6 -9.5,-4 c -0.8,-0.3 -1.7,0 -2,0.8 -0.3,0.8 0,1.7 0.8,2 l 9.5,4 c 0.2,0.1 0.4,0.1 0.6,0.1 0.6,0 1.2,-0.4 1.4,-1 0.4,-0.6 0,-1.6 -0.8,-1.9 z"
       id="path12"
       style="fill:#ffffff"
       inkscape:connector-curvature="0" /><path
       d="m 47.6,66.2 c 0,-0.9 -0.7,-1.6 -1.6,-1.6 -0.9,0 -1.6,0.7 -1.6,1.6 l 0,0.1 c 0,0.9 0.7,1.6 1.6,1.6 0.9,0 1.6,-0.7 1.6,-1.6 l 0,-0.1 z"
       id="path14"
       style="fill:#ffffff"
       inkscape:connector-curvature="0" /><path
       d="m 46.1,58.3 c -0.9,0 -1.6,0.7 -1.6,1.6 l 0,0.1 c 0,0.9 0.7,1.5 1.6,1.5 0.9,0 1.6,-0.8 1.6,-1.6 0,-0.8 -0.8,-1.6 -1.6,-1.6 z"
       id="path16"
       style="fill:#ffffff"
       inkscape:connector-curvature="0" /><path
       d="m 46.1,71 c -0.9,0 -1.6,0.7 -1.6,1.6 l 0,0.1 c 0,0.9 0.7,1.5 1.6,1.5 0.9,0 1.6,-0.8 1.6,-1.6 0,-0.8 -0.8,-1.6 -1.6,-1.6 z"
       id="path18"
       style="fill:#ffffff"
       inkscape:connector-curvature="0" /><path
       d="m 46.1,51.9 c -0.9,0 -1.6,0.7 -1.6,1.6 l 0,0.1 c 0,0.9 0.7,1.5 1.6,1.5 0.9,0 1.6,-0.7 1.6,-1.6 0,-0.9 -0.8,-1.6 -1.6,-1.6 z"
       id="path20"
       style="fill:#ffffff"
       inkscape:connector-curvature="0" /><path
       d="m 62.9,50.1 c 0.2,0.1 0.5,0.2 0.7,0.2 0.6,0 1.1,-0.3 1.4,-0.8 0.4,-0.8 0.2,-1.7 -0.6,-2.1 C 63.6,47 62.7,47.2 62.3,48 l 0,0 c -0.4,0.8 -0.1,1.7 0.6,2.1 z"
       id="path22"
       style="fill:#ffffff"
       inkscape:connector-curvature="0" /><path
       d="m 59.8,55.7 c 0.2,0.1 0.5,0.2 0.7,0.2 0.6,0 1.1,-0.3 1.4,-0.8 0.4,-0.8 0.2,-1.7 -0.6,-2.1 -0.8,-0.4 -1.7,-0.2 -2.1,0.6 l -0.1,0.1 c -0.4,0.6 -0.1,1.5 0.7,2 z"
       id="path24"
       style="fill:#ffffff"
       inkscape:connector-curvature="0" /><path
       d="m 53.5,66.8 c 0.2,0.1 0.5,0.2 0.7,0.2 0.6,0 1.1,-0.3 1.4,-0.8 0.4,-0.8 0.2,-1.7 -0.6,-2.1 -0.8,-0.4 -1.7,-0.2 -2.1,0.6 l -0.1,0.1 c -0.4,0.6 -0.1,1.5 0.7,2 z"
       id="path26"
       style="fill:#ffffff"
       inkscape:connector-curvature="0" /><path
       d="m 51.9,69.5 c -0.7,-0.4 -1.7,-0.2 -2.1,0.6 l -0.1,0.1 c -0.4,0.8 -0.1,1.7 0.6,2.1 0.2,0.1 0.5,0.2 0.7,0.2 0.6,0 1.1,-0.3 1.4,-0.8 0.5,-0.8 0.3,-1.8 -0.5,-2.2 z"
       id="path28"
       style="fill:#ffffff"
       inkscape:connector-curvature="0" /><path
       d="m 56.6,61.2 c 0.2,0.1 0.5,0.2 0.7,0.2 0.6,0 1.1,-0.3 1.4,-0.8 0.4,-0.8 0.2,-1.7 -0.6,-2.1 -0.7,-0.4 -1.7,-0.2 -2.1,0.6 l 0,0 c -0.4,0.8 -0.1,1.7 0.6,2.1 z"
       id="path30"
       style="fill:#ffffff"
       inkscape:connector-curvature="0" /><path
       d="m 33.8,58.4 c -0.8,0.4 -1,1.4 -0.6,2.1 l 0.1,0.1 c 0.3,0.5 0.8,0.8 1.3,0.8 0.3,0 0.5,-0.1 0.8,-0.2 0.8,-0.4 1,-1.4 0.6,-2.2 -0.5,-0.7 -1.4,-1 -2.2,-0.6 z"
       id="path32"
       style="fill:#ffffff"
       inkscape:connector-curvature="0" /><path
       d="m 40.1,69.5 c -0.8,0.4 -1,1.4 -0.6,2.1 l 0.1,0.1 c 0.3,0.5 0.8,0.8 1.3,0.8 0.3,0 0.6,-0.1 0.8,-0.2 0.8,-0.4 1,-1.4 0.6,-2.2 -0.5,-0.7 -1.5,-1 -2.2,-0.6 z"
       id="path34"
       style="fill:#ffffff"
       inkscape:connector-curvature="0" /><path
       d="m 30.7,52.9 c -0.8,0.4 -1,1.4 -0.6,2.1 l 0.1,0.1 c 0.3,0.5 0.8,0.8 1.3,0.8 0.3,0 0.6,-0.1 0.8,-0.2 0.8,-0.4 1,-1.4 0.6,-2.2 -0.5,-0.8 -1.5,-1 -2.2,-0.6 z"
       id="path36"
       style="fill:#ffffff"
       inkscape:connector-curvature="0" /><path
       d="m 27.5,47.3 c -0.8,0.4 -1,1.4 -0.6,2.1 l 0.1,0.1 c 0.3,0.5 0.8,0.8 1.3,0.8 0.3,0 0.6,-0.1 0.8,-0.2 0.8,-0.4 1,-1.4 0.6,-2.2 -0.5,-0.7 -1.4,-1 -2.2,-0.6 z"
       id="path38"
       style="fill:#ffffff"
       inkscape:connector-curvature="0" /><path
       d="m 36.9,64 c -0.8,0.4 -1,1.4 -0.6,2.1 l 0.1,0.1 c 0.3,0.5 0.8,0.8 1.3,0.8 0.3,0 0.6,-0.1 0.8,-0.2 0.8,-0.4 1,-1.4 0.6,-2.2 -0.5,-0.8 -1.4,-1.1 -2.2,-0.6 z"
       id="path40"
       style="fill:#ffffff"
       inkscape:connector-curvature="0" /></g></svg>