<svg xmlns="http://www.w3.org/2000/svg" xmlns:xlink="http://www.w3.org/1999/xlink" version="1.1" x="0px" y="0px" viewBox="0 0 91 113.75" style="enable-background:new 0 0 91 91;" xml:space="preserve"><g><path d="M73.2,80.8H59c-0.2-5.9-6.3-5.9-8.6-5.9h-8.6c-2.3,0-8.5,0-8.6,5.9H19c-0.9,0-1.6,0.7-1.6,1.6s0.7,1.6,1.6,1.6h54.2   c0.9,0,1.6-0.7,1.6-1.6S74.1,80.8,73.2,80.8z M41.8,78h8.6c4.9,0,5.5,1.2,5.5,2.8H36.3C36.3,79.2,37,78,41.8,78z"/><path d="M67.8,16.4L46.1,6.8l-21.7,9.6v22.3l21.7,11l21.7-11V16.4z M62.6,17.5L46.2,26c0,0,0,0,0,0s0,0,0,0l-16.5-8.5l16.5-7.3   L62.6,17.5z M27.6,20l17,8.8v16.6l-17-8.6V20z M47.7,45.4V28.8l17-8.8v16.8L47.7,45.4z"/><path d="M42.2,30.4c-0.3-0.8-1.3-1.2-2-0.8l-9.5,4c-0.8,0.3-1.2,1.3-0.8,2c0.3,0.6,0.8,1,1.4,1c0.2,0,0.4,0,0.6-0.1l9.5-4   C42.2,32.1,42.6,31.2,42.2,30.4z"/><path d="M61.5,33.6l-9.5-4c-0.8-0.3-1.7,0-2,0.8c-0.3,0.8,0,1.7,0.8,2l9.5,4c0.2,0.1,0.4,0.1,0.6,0.1c0.6,0,1.2-0.4,1.4-1   C62.7,34.9,62.3,33.9,61.5,33.6z"/><path d="M47.6,66.2c0-0.9-0.7-1.6-1.6-1.6s-1.6,0.7-1.6,1.6v0.1c0,0.9,0.7,1.6,1.6,1.6s1.6-0.7,1.6-1.6V66.2z"/><path d="M46.1,58.3c-0.9,0-1.6,0.7-1.6,1.6v0.1c0,0.9,0.7,1.5,1.6,1.5s1.6-0.8,1.6-1.6S46.9,58.3,46.1,58.3z"/><path d="M46.1,71c-0.9,0-1.6,0.7-1.6,1.6v0.1c0,0.9,0.7,1.5,1.6,1.5s1.6-0.8,1.6-1.6S46.9,71,46.1,71z"/><path d="M46.1,51.9c-0.9,0-1.6,0.7-1.6,1.6v0.1c0,0.9,0.7,1.5,1.6,1.5s1.6-0.7,1.6-1.6S46.9,51.9,46.1,51.9z"/><path d="M62.9,50.1c0.2,0.1,0.5,0.2,0.7,0.2c0.6,0,1.1-0.3,1.4-0.8c0.4-0.8,0.2-1.7-0.6-2.1c-0.8-0.4-1.7-0.2-2.1,0.6L62.3,48   C61.9,48.8,62.2,49.7,62.9,50.1z"/><path d="M59.8,55.7c0.2,0.1,0.5,0.2,0.7,0.2c0.6,0,1.1-0.3,1.4-0.8c0.4-0.8,0.2-1.7-0.6-2.1c-0.8-0.4-1.7-0.2-2.1,0.6l-0.1,0.1   C58.7,54.3,59,55.2,59.8,55.7z"/><path d="M53.5,66.8c0.2,0.1,0.5,0.2,0.7,0.2c0.6,0,1.1-0.3,1.4-0.8c0.4-0.8,0.2-1.7-0.6-2.1c-0.8-0.4-1.7-0.2-2.1,0.6l-0.1,0.1   C52.4,65.4,52.7,66.3,53.5,66.8z"/><path d="M51.9,69.5c-0.7-0.4-1.7-0.2-2.1,0.6l-0.1,0.1c-0.4,0.8-0.1,1.7,0.6,2.1c0.2,0.1,0.5,0.2,0.7,0.2c0.6,0,1.1-0.3,1.4-0.8   C52.9,70.9,52.7,69.9,51.9,69.5z"/><path d="M56.6,61.2c0.2,0.1,0.5,0.2,0.7,0.2c0.6,0,1.1-0.3,1.4-0.8c0.4-0.8,0.2-1.7-0.6-2.1c-0.7-0.4-1.7-0.2-2.1,0.6L56,59.1   C55.6,59.9,55.9,60.8,56.6,61.2z"/><path d="M33.8,58.4c-0.8,0.4-1,1.4-0.6,2.1l0.1,0.1c0.3,0.5,0.8,0.8,1.3,0.8c0.3,0,0.5-0.1,0.8-0.2c0.8-0.4,1-1.4,0.6-2.2   C35.5,58.3,34.6,58,33.8,58.4z"/><path d="M40.1,69.5c-0.8,0.4-1,1.4-0.6,2.1l0.1,0.1c0.3,0.5,0.8,0.8,1.3,0.8c0.3,0,0.6-0.1,0.8-0.2c0.8-0.4,1-1.4,0.6-2.2   C41.8,69.4,40.8,69.1,40.1,69.5z"/><path d="M30.7,52.9c-0.8,0.4-1,1.4-0.6,2.1l0.1,0.1c0.3,0.5,0.8,0.8,1.3,0.8c0.3,0,0.6-0.1,0.8-0.2c0.8-0.4,1-1.4,0.6-2.2   C32.4,52.7,31.4,52.5,30.7,52.9z"/><path d="M27.5,47.3c-0.8,0.4-1,1.4-0.6,2.1l0.1,0.1c0.3,0.5,0.8,0.8,1.3,0.8c0.3,0,0.6-0.1,0.8-0.2c0.8-0.4,1-1.4,0.6-2.2   C29.2,47.2,28.3,46.9,27.5,47.3z"/><path d="M36.9,64c-0.8,0.4-1,1.4-0.6,2.1l0.1,0.1c0.3,0.5,0.8,0.8,1.3,0.8c0.3,0,0.6-0.1,0.8-0.2c0.8-0.4,1-1.4,0.6-2.2   C38.6,63.8,37.7,63.5,36.9,64z"/></g></svg>
