<svg id="Layer_1" data-name="Layer 1" xmlns="http://www.w3.org/2000/svg" viewBox="0 0 117.61 229.75"><defs><style>.cls-1{fill:#fc9;}.cls-2{fill:#fff;}.cls-3{fill:#d4d4d4;}.cls-4{fill:#0d2340;}</style></defs><title>maximo</title><rect class="cls-1" x="23.27" y="195.42" width="11" height="34.33"/><path class="cls-1" d="M294.44,349.24s8.17,0.17,8.17,9.33h-6.5Z" transform="translate(-261.83 -128.82)"/><rect class="cls-1" x="50.75" y="195.42" width="11" height="34.33"/><path class="cls-1" d="M321.91,349.24s8.17,0.17,8.17,9.33h-6.5Z" transform="translate(-261.83 -128.82)"/><path class="cls-2" d="M264.1,337.57s0.67-108-1.33-125.33-3.67-68.67,27-79.67,51.33,4.33,57.67,18.33,6,77.67,6,77.67,23.33-1.33,24.67,4,2.67,25-1.33,25-5.33-10.67-11.67-11.67a53.57,53.57,0,0,0-11-.67s2.67,81,1.67,85.33-10,11-12.33,11-6.67-10.67-12.67-11-9.33,11-13.33,11-10-12.33-13.67-12.33-10.67,11.33-16.67,11.67-6.67-8.67-11-10S270.77,339.91,264.1,337.57Z" transform="translate(-261.83 -128.82)"/><path class="cls-3" d="M295.77,248.91s16.41,0.5,18.41,4,6.5,13,11.83,12.83,7.13-14.24.65-27Z" transform="translate(-261.83 -128.82)"/><path class="cls-2" d="M298.44,230.24s26,1.67,27,4.33,6.67,23,2.33,27.67-10-13-14-13.67-18,.33-18,0.33Z" transform="translate(-261.83 -128.82)"/><path class="cls-4" d="M303.27,187.74s-3-3.5-2.67-10.5,5.5-5.67,6-4.17S307.44,186.57,303.27,187.74Z" transform="translate(-261.83 -128.82)"/><path class="cls-4" d="M336.44,187.74s-3-3.5-2.67-10.5,5.5-5.67,6-4.17S340.6,186.57,336.44,187.74Z" transform="translate(-261.83 -128.82)"/><path class="cls-4" d="M318.6,202.74s-0.83,11.17,4.33,11.33,6-9.67,1.83-11S318.6,202.74,318.6,202.74Z" transform="translate(-261.83 -128.82)"/></svg>