<?xml version="1.0" encoding="utf-8"?>
<!-- Generator: Adobe Illustrator 19.2.1, SVG Export Plug-In . SVG Version: 6.00 Build 0)  -->
<svg version="1.1" id="Layer_1" xmlns="http://www.w3.org/2000/svg" xmlns:xlink="http://www.w3.org/1999/xlink" x="0px" y="0px"
	 viewBox="0 0 31.3 21.7" style="enable-background:new 0 0 31.3 21.7;" xml:space="preserve">
<style type="text/css">
	.st0{opacity:0.9;fill:#FFFFFF;}
</style>
<g>
	<path class="st0" d="M20.2,2.3L20.2,2.3c0.7,0,1.4,0.3,1.8,0.7c0.4,0.5,0.7,1.1,0.7,1.8v12.4c0,0.7-0.3,1.3-0.7,1.8
		c-0.5,0.4-1.1,0.7-1.8,0.7h0c-0.7,0-1.3-0.3-1.8-0.7c-0.4-0.5-0.7-1.1-0.7-1.8V4.9c0-0.7,0.3-1.3,0.7-1.8
		C18.8,2.6,19.4,2.3,20.2,2.3L20.2,2.3z"/>
	<path class="st0" d="M10.8,2.3L10.8,2.3c0.8,0,1.4,0.3,1.8,0.7c0.4,0.5,0.7,1.1,0.7,1.8v12.4c0,0.7-0.3,1.3-0.7,1.8
		c-0.5,0.4-1.1,0.7-1.8,0.7h0c-0.7,0-1.3-0.3-1.8-0.7c-0.4-0.5-0.7-1.1-0.7-1.8V4.9c0-0.7,0.3-1.3,0.7-1.8
		C9.5,2.6,10.2,2.3,10.8,2.3L10.8,2.3z"/>
</g>
</svg>
