<?xml version="1.0" encoding="utf-8"?>
<!-- Generator: Adobe Illustrator 19.2.1, SVG Export Plug-In . SVG Version: 6.00 Build 0)  -->
<svg version="1.1" id="Layer_1" xmlns="http://www.w3.org/2000/svg" xmlns:xlink="http://www.w3.org/1999/xlink" x="0px" y="0px"
	 viewBox="0 0 19.9 21.2" style="enable-background:new 0 0 19.9 21.2;" xml:space="preserve">
<style type="text/css">
	.st0{fill:#FF2A4E;stroke:#FFFFFF;stroke-miterlimit:10;}
	.st1{fill:#F4F4F4;}
</style>
<path class="st0" d="M14.1,15.6h4c0.6,0,1-0.5,1-1V1.9c0-0.5-0.4-1-1-1H1.6c-0.5,0-1,0.4-1,1v12.7c0,0.5,0.4,1,1,1h4h0
	c0.8,0,1.5,0.4,1.9,1.1l2.2,3.8c0.1,0.1,0.3,0.1,0.4,0l2.2-3.8C12.6,16,13.3,15.6,14.1,15.6L14.1,15.6z"/>
<g>
	<path class="st1" d="M14.3,10.6c-0.5,0-1.1,0-1.5-0.3c-1.9-1.4-0.9-3.3-0.6-3.6C13,5.6,14.5,6.5,14,6.4c-0.2-0.1-1.1,0-1,1
		c0,0.8,0.6,1.1,1.3,1.3L14.3,10.6z"/>
	<path class="st1" d="M10.6,11c0,0,0.8-0.1,0.6-0.8C10.7,8.4,7.1,9.4,7,7.4c0-1,0.8-1.1,1-1c0.5,0.1-1-0.8-1.8,0.3
		C5.9,7,4.4,9.9,6,10.3C7.7,10.7,10.8,9.5,10.6,11z"/>
	<path class="st1" d="M13.6,11c0,0,0.8-0.2,0.6-0.8c-0.6-1.8-4.2-0.8-4.3-2.8c0-1,0.8-1.1,1-1c0.5,0.1-1-0.8-1.8,0.3
		C8.9,7,7.9,8.9,9.8,10.3C11.2,11.3,13.8,9.5,13.6,11z"/>
	<rect x="5.3" y="9.4" class="st1" width="9" height="1.7"/>
</g>
</svg>
