<svg id="Layer_1" data-name="Layer 1" xmlns="http://www.w3.org/2000/svg" viewBox="0 0 19.4 20.6"><defs><style>.cls-1{fill:#ff2a4e;stroke:#ff2a4e;stroke-miterlimit:10;}.cls-2{fill:#f4f4f4;}</style></defs><title>pin</title><path class="cls-1" d="M14.05,15.57h4a1,1,0,0,0,1-1V1.91a1,1,0,0,0-1-1H1.63a1,1,0,0,0-1,1V14.57a1,1,0,0,0,1,1h4a2.16,2.16,0,0,1,1.87,1.08l2.17,3.76a0.2,0.2,0,0,0,.35,0l2.17-3.75a2.17,2.17,0,0,1,1.88-1.08h0Z" transform="translate(-0.13 -0.41)"/><path class="cls-2" d="M14.26,10.6a2.1,2.1,0,0,1-1.49-.31,2.51,2.51,0,0,1-.6-3.6C13,5.62,14.5,6.53,14,6.4a0.89,0.89,0,0,0-1,1,1.42,1.42,0,0,0,1.29,1.27V10.6Z" transform="translate(-0.13 -0.41)"/><path class="cls-2" d="M10.64,11a0.65,0.65,0,0,0,.61-0.8C10.68,8.37,7.05,9.39,7,7.41a0.89,0.89,0,0,1,1-1c0.5,0.13-1-.78-1.83.3C5.91,7,4.42,9.94,6,10.29S10.79,9.46,10.64,11Z" transform="translate(-0.13 -0.41)"/><path class="cls-2" d="M13.64,11s0.82-.17.61-0.8c-0.59-1.8-4.2-.78-4.28-2.76a0.89,0.89,0,0,1,1-1c0.5,0.13-1-.78-1.83.3a2.51,2.51,0,0,0,.6,3.6C11.16,11.32,13.79,9.46,13.64,11Z" transform="translate(-0.13 -0.41)"/><rect class="cls-2" x="5.17" y="8.95" width="8.97" height="1.7"/></svg>