<?xml version="1.0" encoding="utf-8"?>
<!-- Generator: Adobe Illustrator 19.2.1, SVG Export Plug-In . SVG Version: 6.00 Build 0)  -->
<svg version="1.1" id="Layer_1" xmlns="http://www.w3.org/2000/svg" xmlns:xlink="http://www.w3.org/1999/xlink" x="0px" y="0px"
	 viewBox="0 0 31.3 21.7" style="enable-background:new 0 0 31.3 21.7;" xml:space="preserve">
<style type="text/css">
	.st0{opacity:0.9;fill:#FFFFFF;}
</style>
<path class="st0" d="M9,2.4l7,4.1l0,0l0,0l7.1,4.1c0.4,0.2,0.5,0.7,0.3,1.1c-0.1,0.1-0.2,0.2-0.3,0.3L16.1,16l0,0l-7.1,4.1
	c-0.4,0.2-0.8,0.1-1-0.3c-0.1-0.1-0.1-0.3-0.1-0.4l0,0v-8.2V3c0-0.4,0.4-0.7,0.8-0.7C8.8,2.3,8.9,2.3,9,2.4L9,2.4z"/>
</svg>
