<?xml version="1.0" encoding="utf-8"?>
<!-- Generator: Adobe Illustrator 19.2.1, SVG Export Plug-In . SVG Version: 6.00 Build 0)  -->
<svg version="1.1" id="Layer_1" xmlns="http://www.w3.org/2000/svg" xmlns:xlink="http://www.w3.org/1999/xlink" x="0px" y="0px"
	 viewBox="0 0 31.3 21.7" style="enable-background:new 0 0 31.3 21.7;" xml:space="preserve">
<style type="text/css">
	.st0{opacity:0.9;}
	.st1{opacity:0.9;fill:#FFFFFF;}
</style>
<g class="st0">
	<path class="st1" d="M21.7,4.1L21.7,4.1c0.6,0,1.1,0.2,1.5,0.6c0.4,0.4,0.6,0.9,0.6,1.4v10.2c0,0.6-0.2,1.1-0.6,1.4
		c-0.4,0.4-0.9,0.6-1.4,0.6h0c-0.6,0-1.1-0.2-1.4-0.6c-0.4-0.4-0.6-0.9-0.6-1.4V6.1c0-0.6,0.2-1.1,0.6-1.4
		C20.6,4.3,21.2,4.1,21.7,4.1L21.7,4.1z"/>
	<path class="st1" d="M8.4,4.2l5.4,3.1l0,0l0,0l5.5,3.1c0.3,0.2,0.4,0.6,0.2,0.8c-0.1,0.1-0.2,0.2-0.2,0.2l-5.5,3.1v0l-5.4,3.1
		c-0.3,0.2-0.6,0-0.8-0.2c-0.1-0.1-0.1-0.2-0.1-0.3l0,0v-6.3V4.6c0-0.3,0.2-0.6,0.6-0.6C8.2,4.1,8.3,4.1,8.4,4.2L8.4,4.2z"/>
</g>
</svg>
