<?xml version="1.0" encoding="utf-8"?>
<!-- Generator: Adobe Illustrator 19.2.1, SVG Export Plug-In . SVG Version: 6.00 Build 0)  -->
<svg version="1.1" id="Layer_1" xmlns="http://www.w3.org/2000/svg" xmlns:xlink="http://www.w3.org/1999/xlink" x="0px" y="0px"
	 viewBox="0 0 31.3 21.7" style="enable-background:new 0 0 31.3 21.7;" xml:space="preserve">
<style type="text/css">
	.st0{opacity:0.9;fill:#FFFFFF;}
</style>
<g>
	<path class="st0" d="M23.1,3L23.1,3c0.7,0,1.3,0.2,1.7,0.7c0.5,0.4,0.7,1,0.7,1.7v11.7c0,0.6-0.2,1.3-0.7,1.7
		c-0.4,0.5-1,0.7-1.7,0.7h0c-0.6,0-1.3-0.2-1.7-0.7c-0.5-0.4-0.7-1-0.7-1.7V5.4c0-0.6,0.3-1.3,0.7-1.7C21.8,3.2,22.4,3,23.1,3
		L23.1,3z"/>
	<path class="st0" d="M7.7,3.1l6.2,3.6l0,0l0,0l6.3,3.6c0.3,0.2,0.5,0.6,0.3,1c-0.1,0.1-0.2,0.2-0.3,0.2l-6.3,3.6v0l-6.3,3.6
		c-0.3,0.2-0.7,0-0.9-0.3c-0.1-0.1-0.1-0.2-0.1-0.3l0,0v-7.3V3.6C6.6,3.3,6.9,3,7.3,3C7.4,3,7.6,3,7.7,3.1L7.7,3.1z"/>
</g>
</svg>
