<svg id="Layer_1" data-name="Layer 1" xmlns="http://www.w3.org/2000/svg" viewBox="0 0 19.03 16.62"><defs><style>.cls-1{fill:#fff;opacity:0.9;}</style></defs><title>step-backward</title><path class="cls-1" d="M9.09,2.9H9a2.42,2.42,0,0,0-1.71.69,2.59,2.59,0,0,0-.69,1.71V17.11a2.58,2.58,0,0,0,.69,1.71,2.41,2.41,0,0,0,1.71.7h0a2.37,2.37,0,0,0,1.67-.7,2.42,2.42,0,0,0,.74-1.71V5.31a2.43,2.43,0,0,0-.74-1.71A2.38,2.38,0,0,0,9.09,2.9h0Z" transform="translate(-6.64 -2.9)"/><path class="cls-1" d="M24.6,3l-6.3,3.61h0L12,10.31a0.73,0.73,0,0,0-.28,1,1.19,1.19,0,0,0,.28.23l6.34,3.66,0,0,6.3,3.61a0.68,0.68,0,0,0,.93-0.23,0.44,0.44,0,0,0,.09-0.33h0V3.59A0.67,0.67,0,0,0,25,2.9,0.56,0.56,0,0,0,24.6,3h0Z" transform="translate(-6.64 -2.9)"/></svg>