<?xml version="1.0" encoding="utf-8"?>
<!-- Generator: Adobe Illustrator 19.2.1, SVG Export Plug-In . SVG Version: 6.00 Build 0)  -->
<svg version="1.1" id="Layer_1" xmlns="http://www.w3.org/2000/svg" xmlns:xlink="http://www.w3.org/1999/xlink" x="0px" y="0px"
	 viewBox="0 0 31.3 21.7" style="enable-background:new 0 0 31.3 21.7;" xml:space="preserve">
<style type="text/css">
	.st0{opacity:0.9;}
	.st1{opacity:0.9;fill:#FFFFFF;}
</style>
<g class="st0">
	<path class="st1" d="M9.6,4.1L9.6,4.1C9,4.1,8.4,4.3,8.1,4.7C7.7,5,7.5,5.6,7.5,6.1v10.2c0,0.6,0.2,1.1,0.6,1.4
		c0.4,0.4,0.9,0.6,1.4,0.6h0c0.6,0,1.1-0.2,1.4-0.6c0.4-0.4,0.6-0.9,0.6-1.4V6.1c0-0.6-0.2-1.1-0.6-1.4C10.7,4.3,10.1,4.1,9.6,4.1
		L9.6,4.1z"/>
	<path class="st1" d="M22.9,4.2l-5.4,3.1l0,0l0,0l-5.5,3.1c-0.3,0.2-0.4,0.6-0.2,0.8c0.1,0.1,0.2,0.2,0.2,0.2l5.5,3.1v0l5.4,3.1
		c0.3,0.2,0.6,0,0.8-0.2c0.1-0.1,0.1-0.2,0.1-0.3l0,0v-6.3V4.6c0-0.3-0.2-0.6-0.6-0.6C23.1,4.1,23,4.1,22.9,4.2L22.9,4.2z"/>
</g>
</svg>
